<?xml version="1.0" encoding="UTF-8" standalone="no"?>
<svg
   xmlns:dc="http://purl.org/dc/elements/1.1/"
   xmlns:cc="http://creativecommons.org/ns#"
   xmlns:rdf="http://www.w3.org/1999/02/22-rdf-syntax-ns#"
   xmlns:svg="http://www.w3.org/2000/svg"
   xmlns="http://www.w3.org/2000/svg"
   xmlns:sodipodi="http://sodipodi.sourceforge.net/DTD/sodipodi-0.dtd"
   xmlns:inkscape="http://www.inkscape.org/namespaces/inkscape"
   version="1.1"
   id="svg2"
   xml:space="preserve"
   width="1333.3333"
   height="1333.3333"
   viewBox="0 0 1333.3333 1333.3333"
   sodipodi:docname="vectorstock_5505950.ai"><metadata
     id="metadata8"><rdf:RDF><cc:Work
         rdf:about=""><dc:format>image/svg+xml</dc:format><dc:type
           rdf:resource="http://purl.org/dc/dcmitype/StillImage" /></cc:Work></rdf:RDF></metadata><defs
     id="defs6"><clipPath
       clipPathUnits="userSpaceOnUse"
       id="clipPath20"><path
         d="M 0,1000 H 1000 V 0 H 0 Z"
         id="path18" /></clipPath></defs><sodipodi:namedview
     pagecolor="#ffffff"
     bordercolor="#666666"
     borderopacity="1"
     objecttolerance="10"
     gridtolerance="10"
     guidetolerance="10"
     inkscape:pageopacity="0"
     inkscape:pageshadow="2"
     inkscape:window-width="640"
     inkscape:window-height="480"
     id="namedview4" /><g
     id="g10"
     inkscape:groupmode="layer"
     inkscape:label="vectorstock_5505950"
     transform="matrix(1.3333333,0,0,-1.3333333,0,1333.3333)"><path
       d="M 0,0 H 1000 V 1000 H 0 Z"
       style="fill:#ededed;fill-opacity:0;fill-rule:nonzero;stroke:none"
       id="path12" /><g
       id="g14"><g
         id="g16"
         clip-path="url(#clipPath20)"><g
           id="g22"
           transform="translate(614.4648,755.3076)"><path
             d="m 0,0 c -2.04,-15.88 -1.863,-32.506 -2.271,-48.517 -0.414,-16.171 -0.938,-32.341 -1.299,-48.515 -0.362,-16.182 -0.48,-32.371 -0.959,-48.55 -0.456,-15.409 0.046,-31.103 -1.855,-46.424 -3.084,-24.876 -9.027,-52.565 -27.465,-70.809 -9.468,-9.37 -20.028,-17.345 -32.083,-23.112 -5.087,-2.433 -11.673,-1.402 -16.937,-3.449 -6.914,-2.69 -12.04,-5.538 -14.721,-12.801 -0.169,-0.459 -0.263,-0.925 -0.318,-1.391 -5.505,-7.652 -7.131,-17.161 -7.669,-26.457 -0.521,-9.002 -1.138,-18.783 -0.171,-27.747 1.048,-9.725 0.412,-19.447 0.219,-29.196 -0.2,-10.129 0.674,-20.195 0.72,-30.318 0.043,-9.432 0.097,-18.406 1.526,-27.481 0.605,-3.841 0.086,-8.656 0.81,-12.849 0.233,-1.346 -0.184,-3.26 -0.023,-4.753 0.453,-4.214 0.276,-3.107 0.988,-6.7 1.844,-9.307 1.006,-19.958 11.634,-23.823 3.067,-1.116 7.403,0.649 8.822,3.59 1.843,3.819 3.545,9.373 3.29,13.656 -0.138,2.34 -0.587,5.116 -0.937,7.557 0.777,-0.303 1.551,-0.625 2.317,-0.997 4.081,-1.983 8.133,-4.026 12.3,-5.822 6.762,-2.914 13.525,-5.948 20.164,-9.136 6.141,-2.948 12.6,-6.103 17.514,-10.926 3.175,-3.115 10.181,-10.304 4.398,-14.234 -14.007,-9.514 -33.968,-8.612 -50.196,-9.233 -9.561,-0.367 -19.122,-0.775 -28.679,-1.224 -5.291,-0.248 -11.445,0.144 -17.083,-0.777 -5.64,0.921 -11.794,0.529 -17.084,0.777 -9.557,0.449 -19.118,0.857 -28.679,1.224 -16.228,0.621 -36.189,-0.281 -50.196,9.233 -5.783,3.93 1.222,11.119 4.398,14.234 4.914,4.823 11.374,7.978 17.514,10.926 6.638,3.188 13.402,6.222 20.164,9.136 4.167,1.796 8.219,3.839 12.3,5.822 0.766,0.372 1.539,0.694 2.317,0.997 -0.35,-2.441 -0.798,-5.217 -0.938,-7.557 -0.254,-4.283 1.448,-9.837 3.291,-13.656 1.419,-2.941 5.754,-4.706 8.822,-3.59 10.627,3.865 9.79,14.516 11.634,23.823 0.712,3.593 0.535,2.486 0.988,6.7 0.162,1.493 -0.256,3.407 -0.024,4.753 0.726,4.193 0.206,9.008 0.811,12.849 1.429,9.075 1.482,18.049 1.525,27.481 0.047,10.123 0.922,20.189 0.721,30.318 -0.193,9.749 -0.829,19.471 0.219,29.196 0.966,8.964 0.35,18.745 -0.171,27.747 -0.538,9.296 -2.164,18.805 -7.669,26.457 -0.056,0.466 -0.149,0.932 -0.318,1.391 -2.681,7.263 -7.807,10.111 -14.721,12.801 -5.264,2.047 -11.851,1.016 -16.937,3.449 -12.055,5.767 -22.614,13.742 -32.083,23.112 -18.438,18.244 -24.381,45.933 -27.465,70.809 -1.9,15.321 -1.399,31.015 -1.855,46.424 -0.479,16.179 -0.598,32.368 -0.959,48.55 -0.362,16.174 -0.886,32.344 -1.298,48.515 -0.409,16.011 -0.232,32.637 -2.273,48.517 -0.405,3.157 -0.849,6.048 -1.585,8.884 0.47,-0.004 0.939,-0.033 1.408,-0.102 2.98,-0.198 5.918,-0.372 8.909,-0.457 11.2,-0.32 22.346,-1.178 33.536,-1.697 11.038,-0.514 22.088,-0.397 33.132,-0.887 11.427,-0.509 22.866,-0.735 34.301,-0.984 11.889,-0.258 23.78,-0.772 35.668,-1.204 -3.572,-5.72 -6.869,-11.675 -10.746,-17.447 -3.559,-5.298 -7.425,-10.353 -11.292,-15.428 0.691,1.045 0.578,1.061 -0.341,0.053 -1.457,-1.365 -2.605,-2.912 -3.81,-4.513 -2.361,-3.141 -3.59,-6.977 -3.466,-10.91 0.17,-5.416 3.916,-12.075 9.851,-12.939 11.031,-1.606 21.104,-6.347 31.638,-9.697 5.512,-1.753 10.977,-2.798 16.711,-3.431 -2.121,-2.835 -4.442,-5.534 -6.493,-8.42 -5.238,-7.371 -10.006,-15.009 -15.41,-22.289 -11.476,-15.459 -21.738,-31.795 -33.442,-47.058 -2.073,-2.703 2.398,-6.026 4.662,-3.598 11.461,12.285 23.295,24.245 34.892,36.41 6.006,6.3 12.448,12.395 18.005,19.093 4.962,5.98 10.416,11.63 16.256,16.76 7.312,6.423 13.845,13.058 9.342,23.382 -3.636,8.333 -14.48,9.091 -22.214,10.181 -7.781,1.096 -15.122,3.74 -22.259,6.973 -2.181,0.988 -4.342,1.886 -6.503,2.706 2.249,3.11 4.448,6.25 6.557,9.466 5.91,9.011 9.598,18.56 16.273,26.013 1.08,1.205 1.926,2.555 2.542,3.973 0.337,-0.001 0.673,-0.008 1.01,-0.009 11.353,-0.018 22.716,-0.262 34.068,-0.145 5.319,0.054 10.598,0.626 15.895,0.991 3.194,0.22 6.38,0.976 9.578,1.306 C 0.459,3.372 0.223,1.729 0,0 m 18.424,-79.499 c -0.076,16.131 0.08,32.273 -0.62,48.393 -0.575,13.22 -3.588,48.851 -6.304,51.378 -5.016,4.666 -10.176,4.582 -16.574,3.511 -5.254,-0.88 -10.697,-1.163 -16.02,-1.393 -12.521,-0.541 -25.17,0.089 -37.704,0.068 -24.981,-0.039 -50.012,1.385 -75.005,1.862 -12.134,0.233 -24.266,0.548 -36.387,1.185 -12.132,0.637 -24.328,-0.019 -36.475,0.582 -6.213,0.307 -12.477,0.372 -18.667,-0.275 -5.663,-0.593 -12.568,-0.381 -17.83,-2.606 -5.169,-2.185 -7.841,-15.637 -7.635,-17.613 -3.138,-11.709 -2.432,-25.126 -2.935,-36.699 -0.701,-16.12 -0.544,-32.262 -0.621,-48.393 -0.15,-32.07 -1.285,-64.131 -0.081,-96.192 1.075,-28.605 5.957,-58.192 19.725,-83.632 6.997,-12.929 17.408,-23.457 28.982,-32.352 11.28,-8.668 23.892,-16.414 38.193,-18.135 5.129,-0.617 9.996,-1.291 14.969,-1.765 0.503,-1.449 0.936,-2.92 1.131,-4.45 1.053,-8.243 0.312,-16.517 -0.822,-24.728 -0.616,-4.459 -0.7,-8.831 -0.717,-13.324 -0.016,-4.135 -0.757,-8.42 -0.916,-12.619 -0.348,-9.215 0.355,-18.445 0.211,-27.663 -0.13,-8.281 -0.827,-16.476 -0.79,-24.773 0.038,-8.219 -0.606,-16.17 -1.117,-24.06 -0.208,-3.198 0.189,-6.772 -0.302,-9.776 -0.227,-1.389 -0.32,-2.681 -0.362,-3.992 -0.849,-0.107 -1.698,-0.217 -2.549,-0.308 -5.377,-0.577 -11.177,-3.18 -16.278,-4.96 -8.582,-2.992 -17.137,-6.439 -25.496,-10.011 -15.645,-6.686 -36.142,-19.53 -31.813,-39.494 2.243,-10.35 14.347,-15.914 23.36,-18.811 10.212,-3.279 21.596,-3.962 32.234,-4.578 11.344,-0.658 22.722,-0.953 34.076,-1.4 5.748,-0.227 11.498,-0.325 17.25,-0.393 2.485,-0.029 5.023,-0.025 7.501,0.258 2.478,-0.283 5.015,-0.287 7.5,-0.258 5.751,0.068 11.502,0.166 17.25,0.393 11.354,0.447 22.732,0.742 34.075,1.4 10.639,0.616 22.023,1.299 32.235,4.578 9.012,2.897 21.116,8.461 23.36,18.811 4.329,19.964 -16.168,32.808 -31.813,39.494 -8.359,3.572 -16.914,7.019 -25.497,10.011 -5.1,1.78 -10.901,4.383 -16.277,4.96 -0.851,0.091 -1.7,0.201 -2.549,0.308 -0.042,1.311 -0.135,2.603 -0.363,3.992 -0.49,3.004 -0.093,6.578 -0.301,9.776 -0.511,7.89 -1.155,15.841 -1.118,24.06 0.038,8.297 -0.659,16.492 -0.789,24.773 -0.145,9.218 0.559,18.448 0.211,27.663 -0.158,4.199 -0.899,8.484 -0.916,12.619 -0.018,4.493 -0.102,8.865 -0.718,13.324 -1.134,8.211 -1.875,16.485 -0.821,24.728 0.195,1.53 0.628,3.001 1.131,4.45 4.972,0.474 9.841,1.148 14.969,1.765 14.301,1.721 26.914,9.467 38.192,18.135 11.575,8.895 21.986,19.423 28.983,32.352 13.768,25.44 18.65,55.027 19.724,83.632 1.205,32.061 0.07,64.122 -0.08,96.192"
             style="fill:#595959;fill-opacity:1;fill-rule:nonzero;stroke:none"
             id="path24" /></g><g
           id="g26"
           transform="translate(392.8311,768.3027)"><path
             d="m 0,0 c -5.637,-4.365 -10.353,-9.758 -15.796,-14.357 -3.126,-2.641 -11.738,-8.674 -9.917,-13.676 0.209,-0.574 0.912,-1.004 1.491,-0.608 2.023,1.383 3.029,4.016 4.631,5.885 2.168,2.529 4.808,4.68 7.309,6.865 4.548,3.975 8.953,8.343 12.767,13.056 0.373,-0.176 0.888,0.009 0.944,0.57 0.014,0.247 0.048,0.494 0.1,0.736 C 2.626,-0.655 1.083,0.839 0,0"
             style="fill:#595959;fill-opacity:1;fill-rule:nonzero;stroke:none"
             id="path28" /></g><g
           id="g30"
           transform="translate(403.2939,762.3398)"><path
             d="m 0,0 c -6.88,-7.82 -15.202,-14.295 -21.432,-22.695 -3.329,-4.488 -6.338,-9.229 -9.475,-13.852 -3.046,-4.488 -6.797,-8.662 -9.531,-13.318 -0.431,-0.733 0.434,-1.633 1.175,-1.176 7.995,4.937 13.25,14.623 18.23,22.289 6.421,9.883 15.197,18.049 22.635,27.149 C 2.511,-0.49 0.977,1.109 0,0"
             style="fill:#595959;fill-opacity:1;fill-rule:nonzero;stroke:none"
             id="path32" /></g><g
           id="g34"
           transform="translate(401.6562,735.4785)"><path
             d="m 0,0 c -7.486,-7.39 -13.966,-15.766 -20.587,-23.92 -2.633,-3.244 -4.844,-6.594 -7.016,-10.168 -2.168,-3.566 -5.225,-7.574 -5.511,-11.849 -0.067,-1.001 1.158,-1.284 1.801,-0.745 2.817,2.361 4.289,6.233 6.104,9.371 2.498,4.319 5.178,8.34 8.296,12.237 6.225,7.779 11.914,15.956 18.791,23.196 C 3.057,-0.637 1.222,1.207 0,0"
             style="fill:#595959;fill-opacity:1;fill-rule:nonzero;stroke:none"
             id="path36" /></g><g
           id="g38"
           transform="translate(399.8477,709.7705)"><path
             d="m 0,0 c -5.187,-7.548 -10.811,-14.778 -16.113,-22.245 -2.565,-3.611 -5.541,-6.768 -7.784,-10.609 -1.815,-3.11 -4.228,-6.144 -5.731,-9.361 -0.441,-0.945 0.444,-1.831 1.39,-1.389 3.545,1.656 5.316,3.96 6.797,7.422 1.737,4.065 4.859,7.036 7.243,10.654 5.374,8.154 11.32,15.914 16.694,24.069 C 3.529,0.109 1.044,1.521 0,0"
             style="fill:#595959;fill-opacity:1;fill-rule:nonzero;stroke:none"
             id="path40" /></g><g
           id="g42"
           transform="translate(401.4077,681.7305)"><path
             d="m 0,0 c -5.771,-6.924 -12.562,-12.906 -18.28,-19.883 -4.614,-5.627 -11.945,-14.119 -11.586,-21.803 0.051,-1.087 1.367,-1.388 1.966,-0.533 4.748,6.783 8.146,14.36 13.341,20.923 5.26,6.643 11.621,12.321 16.934,18.921 C 3.713,-0.713 1.396,1.675 0,0"
             style="fill:#595959;fill-opacity:1;fill-rule:nonzero;stroke:none"
             id="path44" /></g><g
           id="g46"
           transform="translate(405.4424,662.0098)"><path
             d="m 0,0 c -4.428,-9.514 -12.095,-16.844 -17.956,-25.432 -4.044,-5.925 -13.585,-14.425 -11.633,-22.375 0.219,-0.89 1.527,-1.314 2.154,-0.568 2.578,3.062 3.773,7.156 6.038,10.5 2.666,3.939 5.557,7.66 8.169,11.642 5.415,8.251 12.485,15.172 16.534,24.301 C 4.292,0.291 1.047,2.25 0,0"
             style="fill:#595959;fill-opacity:1;fill-rule:nonzero;stroke:none"
             id="path48" /></g><g
           id="g50"
           transform="translate(403.9087,629.0312)"><path
             d="m 0,0 c -5.733,-8.039 -11.893,-15.754 -17.937,-23.559 -2.697,-3.482 -5.351,-6.998 -7.947,-10.556 -2.522,-3.458 -6.074,-7.19 -6.671,-11.526 -0.142,-1.027 0.826,-2.127 1.893,-1.457 3.417,2.149 5.216,6.026 7.481,9.286 2.755,3.968 5.649,7.839 8.557,11.696 6.046,8.016 12.25,15.907 17.997,24.144 C 4.822,0.105 1.445,2.026 0,0"
             style="fill:#595959;fill-opacity:1;fill-rule:nonzero;stroke:none"
             id="path52" /></g><g
           id="g54"
           transform="translate(414.5752,610.0654)"><path
             d="m 0,0 c -6.756,-8.66 -14.156,-16.485 -20.099,-25.779 -3.305,-5.169 -6.926,-10.036 -10.63,-14.923 -2.914,-3.844 -7.984,-8.306 -8.195,-13.315 -0.038,-0.906 0.958,-1.688 1.829,-1.393 4.015,1.357 6.199,5.788 8.633,9.067 3.678,4.959 7.436,9.852 10.742,15.07 3.446,5.438 6.702,10.856 10.741,15.894 3.431,4.28 7.059,8.384 10.354,12.775 C 4.835,-0.656 1.496,1.917 0,0"
             style="fill:#595959;fill-opacity:1;fill-rule:nonzero;stroke:none"
             id="path56" /></g><g
           id="g58"
           transform="translate(386.0962,556.0986)"><path
             d="M 0,0 C -0.064,0 -0.064,-0.101 0,-0.101 0.064,-0.101 0.064,0 0,0"
             style="fill:#595959;fill-opacity:1;fill-rule:nonzero;stroke:none"
             id="path60" /></g><g
           id="g62"
           transform="translate(426.4751,589.9941)"><path
             d="m 0,0 c -15.189,-22.875 -35.074,-42.516 -49.059,-66.254 -0.684,-1.16 0.694,-2.609 1.871,-1.871 11.125,6.988 16.908,21.019 25.097,30.891 9.171,11.054 17.902,23.046 25.329,35.34 C 4.499,0.194 1.326,1.996 0,0"
             style="fill:#595959;fill-opacity:1;fill-rule:nonzero;stroke:none"
             id="path64" /></g><g
           id="g66"
           transform="translate(438.0493,564.0918)"><path
             d="m 0,0 c -9.494,-9.481 -16.223,-21.152 -23.171,-32.52 -4.934,-8.07 -19.328,-20.175 -14.307,-30.703 0.781,-1.638 3.206,-1.412 4.048,0 2.742,4.596 3.904,9.703 7.073,14.196 3.104,4.4 6.351,8.392 9.065,13.072 6.427,11.084 12.487,22.508 21.38,31.867 C 6.653,-1.387 2.644,2.643 0,0"
             style="fill:#595959;fill-opacity:1;fill-rule:nonzero;stroke:none"
             id="path68" /></g><g
           id="g70"
           transform="translate(449.7319,534.9297)"><path
             d="m 0,0 c -5.391,-10.381 -12.187,-19.914 -18.681,-29.616 -3.302,-4.935 -6.214,-10.066 -9.193,-15.198 -1.945,-3.353 -4.785,-7.635 -2.748,-11.43 0.448,-0.835 1.559,-1.065 2.352,-0.617 3.434,1.935 4.722,7.104 6.59,10.427 2.627,4.674 5.229,9.307 8.136,13.815 6.326,9.814 13.016,19.402 18.266,29.859 C 6.296,0.376 1.63,3.139 0,0"
             style="fill:#595959;fill-opacity:1;fill-rule:nonzero;stroke:none"
             id="path72" /></g><g
           id="g74"
           transform="translate(462.9175,516.2881)"><path
             d="m 0,0 c -1.41,-4.609 -4.35,-8.241 -7.234,-12.011 -3.057,-3.995 -4.996,-8.867 -7.471,-13.242 -4.342,-7.675 -10.875,-16.022 -11.233,-25.174 -0.041,-1.07 0.626,-2.245 1.575,-2.746 3.453,-1.824 4.642,1.905 5.368,4.57 1.507,5.526 4.149,11.194 7.199,16.046 3.304,5.257 5.308,11.358 8.775,16.47 3.238,4.777 6.753,8.955 8.37,14.612 C 6.336,1.978 1.043,3.408 0,0"
             style="fill:#595959;fill-opacity:1;fill-rule:nonzero;stroke:none"
             id="path76" /></g><g
           id="g78"
           transform="translate(473.8994,491.334)"><path
             d="m 0,0 c -5.006,-7.998 -10.577,-15.779 -16.011,-23.488 -2.859,-4.055 -10.121,-11.691 -5.649,-16.645 0.735,-0.814 1.952,-0.656 2.707,0 2.263,1.965 2.295,5.352 3.765,7.957 1.674,2.967 3.947,5.569 5.701,8.492 4.333,7.227 9.536,13.891 13.872,21.121 C 6.076,0.257 1.731,2.766 0,0"
             style="fill:#595959;fill-opacity:1;fill-rule:nonzero;stroke:none"
             id="path80" /></g><g
           id="g82"
           transform="translate(500.5942,485.5117)"><path
             d="m 0,0 c -4.293,-6.807 -9.757,-12.75 -14.232,-19.43 -2.172,-3.24 -3.891,-6.925 -5.66,-10.402 -1.548,-3.044 -3.369,-6.298 -2.107,-9.676 0.58,-1.553 2.193,-1.924 3.46,-0.914 2.34,1.866 2.873,4.754 4.093,7.406 1.633,3.55 3.476,7.159 5.51,10.491 4.183,6.851 9.739,12.746 13.928,19.607 C 6.943,0.277 1.982,3.141 0,0"
             style="fill:#595959;fill-opacity:1;fill-rule:nonzero;stroke:none"
             id="path84" /></g><g
           id="g86"
           transform="translate(525.5381,480.3936)"><path
             d="m 0,0 c -2.997,-8.763 -8.691,-16.409 -13.196,-24.513 -4.837,-8.701 -12.105,-15.806 -15.221,-25.421 -0.483,-1.492 1.492,-2.51 2.546,-1.481 7.265,7.086 13.709,14.484 18.442,23.531 4.604,8.795 10.421,16.732 13.531,26.201 C 7.382,2.215 1.31,3.831 0,0"
             style="fill:#595959;fill-opacity:1;fill-rule:nonzero;stroke:none"
             id="path88" /></g></g></g></g></svg>
